<?xml version="1.0" encoding="utf-8"?>
<!-- Generator: Adobe Illustrator 18.1.1, SVG Export Plug-In . SVG Version: 6.00 Build 0)  -->
<!DOCTYPE svg PUBLIC "-//W3C//DTD SVG 1.1//EN" "http://www.w3.org/Graphics/SVG/1.1/DTD/svg11.dtd">
<svg version="1.1" id="Layer_1" xmlns="http://www.w3.org/2000/svg" xmlns:xlink="http://www.w3.org/1999/xlink" x="0px" y="0px"
	 width="153px" height="67.3px" viewBox="0 0 153 67.3" enable-background="new 0 0 153 67.3" xml:space="preserve">
<g>
	<g>
		<rect x="0.9" y="0.9" fill="#FFFFFF" width="115.3" height="65.4"/>
		<path d="M117.2,67.3H0V0h117.2V67.3z M1.9,65.4h113.4V1.9H1.9V65.4z"/>
	</g>
	<g>
		<g>
			<path fill="#FFFFFF" d="M54.7,27.3"/>
		</g>
		<path d="M79.9,23.5l-1.2,4.6c0,0-8.7,0-9.2,0c-0.3,0-0.4,0.1-0.5,0.5l-1.2,4.4c0,0-0.3,0.6,0.5,0.6h9.1L76,38.1h-9
			c-0.5,0-0.6,0.1-0.7,0.4l-1.6,6.1c-0.1,0.4-0.3,0.8,0.5,0.8h9l-1.3,4.7l-10.8,0c-1.5,0-3-1.5-2.5-3.5c0,0,5.1-19,5.1-19.1
			c0.6-2.2,1.9-4.1,4.7-4.1H79.9z"/>
		<path d="M27.7,28.1H16.8c-0.2,0-0.4,0.1-0.5,0.4c-0.3,1-4,14.7-4.3,16c-0.2,0.8,0.1,0.9,0.5,0.9c0.5,0,3.8,0,4.9,0
			c0.8,0,1.1,0.1,1.2-0.4c0.2-0.7,1.5-5.7,1.7-6.3c0.2-0.6,0-0.6-0.5-0.6c-1,0-2.5,0-2.6,0c-0.2,0-0.2-0.1-0.2-0.3
			c0.2-0.5,1.2-4.2,1.2-4.2l8.1,0l-3.5,13.2c-0.5,1.6-2.3,3.4-4.9,3.4c-1.6,0-7.5,0-8.8,0c-1.4,0-3.2-1.4-2.6-3.6
			c0.6-2.3,4.9-18.2,5.4-19.8c0.5-1.7,2.7-3.3,4.6-3.3l12.4,0L27.7,28.1z"/>
		<g>
			<path d="M60.6,23.5c0,0-7.7,0-9.3,0c-1.6,0-3.6,1.4-4.2,3.3c-0.3,1-6.3,23.4-6.3,23.4l4.7,0l4.1-15.6l5.1,15.6h4.6c0,0-4-12-4-12
				c2,0,4.7-0.3,5.5-2.6c0,0,2-7.5,2.4-8.9C63.6,25.1,62.2,23.5,60.6,23.5z M58.2,28.6l-1.3,4.8c-0.1,0.4,0,0.4-0.5,0.4l-6,0
				c-0.4,0-0.6,0-0.5-0.5c0,0,1.2-4.3,1.3-4.8s0.4-0.3,0.9-0.3c1.3,0,5.7,0,5.7,0C58.3,28.2,58.3,28.1,58.2,28.6z"/>
		</g>
		<g>
			<path d="M42.4,23.5c0,0-6.3,0-7.7,0c-2.4,0-4.7,1.5-5.3,3.9c-0.4,1.4-5.2,19.4-5.2,19.4c-0.4,1.6,0.6,3.5,2.6,3.5l9,0
				c2.2,0,4-1.6,4.5-3.3c0.4-1.6,5.2-19.6,5.2-19.6C45.8,25.6,44.6,23.5,42.4,23.5z M40.3,29.2l-4.1,15.6c-0.2,0.5-0.2,0.7-1.1,0.7
				l-5.3,0c-0.7,0-0.5-0.3-0.4-0.8l4.3-15.9c0.1-0.4,0.2-0.6,0.6-0.6c0.5,0,5.1,0,5.7,0C40.6,28.1,40.4,28.7,40.3,29.2z"/>
		</g>
		<g>
			<path fill="#EE3124" d="M7.2,12H153L71,60.7C79.7,48.4,89.8,35.8,98.5,24L7.2,12z"/>
		</g>
	</g>
</g>
</svg>
