<svg xmlns="http://www.w3.org/2000/svg" viewBox="0 0 160 51.11"><title>Happy Cog Logo</title><path d="M59.69,12.95,75.49,1.59A.88.88,0,0,0,75,0H.88A.88.88,0,0,0,.37,1.59l15.8,11.36a.88.88,0,0,1,.36.71v23.8a.88.88,0,0,1-.36.71L.37,49.53a.88.88,0,0,0,.51,1.59H75a.88.88,0,0,0,.51-1.59L59.69,38.17a.88.88,0,0,1-.36-.71V13.66A.88.88,0,0,1,59.69,12.95Z"></path><path d="M143.82,12.95,159.64,1.58A.87.87,0,0,0,159.13,0H85a.87.87,0,0,0-.51,1.58l15.82,11.37a.87.87,0,0,1,.36.71v2.88a.87.87,0,0,1-.87.87H75.35a.87.87,0,0,0-.61.25l-8.06,7.9h0l8.06,7.9a.87.87,0,0,0,.61.25H99.8a.87.87,0,0,1,.87.87v2.88a.87.87,0,0,1-.36.71L84.49,49.53A.87.87,0,0,0,85,51.11h74.13a.87.87,0,0,0,.51-1.58L143.82,38.17a.87.87,0,0,1-.36-.71V13.66A.87.87,0,0,1,143.82,12.95Z" class="hc-logo-fill"></path></svg>
